<svg xmlns="http://www.w3.org/2000/svg" width="78.32mm" height="42.84mm" viewBox="0 0 222.01 121.42"><defs><style>.a{fill:#1d1d1b;}.b{fill:#9d9d9c;}.c{fill:#c4301f;}</style></defs><title>MHV_LOGO_NEU_4C_AUF_WEISS</title><path class="a" d="M376.75,330.53H366.46v12.06h3.36v.77H359v-.77h3.17V318.1h-3.21v-.77h10.77v.77h-3.25v11.43h10.29V318.1h-3.36v-.77h10.7v.77H381v24.49h3.21v.77H373.47v-.77h3.28Z" transform="translate(-311.16 -240.56)"/><path class="a" d="M399.3,335.07h-7.86l-2.51,7.52h3.39v.77H385.4v-.77h2.51l8.78-25.34h1.18l8.45,25.34H409l0,.77H398.42v-.77h3.43Zm-7.56-.81H399l-3.65-10.77Z" transform="translate(-311.16 -240.56)"/><path class="a" d="M431.92,318.1h-3v16c0,2.1.08,4.72-1.28,6.71-2.05,3-5.73,3-7.16,3-3.83,0-6.27-1.22-7.51-2.51-1.94-2-2-4.46-2-6.53V318.1h-3.45v-.77h11.16v.77h-3.52v17.37c0,1.66,0,3.62,1.12,5.13a6.57,6.57,0,0,0,5.31,2.32,6.07,6.07,0,0,0,5.15-2.44c1.28-1.77,1.28-3.95,1.28-5.83V318.1H424.6v-.77h7.32Z" transform="translate(-311.16 -240.56)"/><path class="a" d="M448.29,316.89l.23,6.82h-1a6.59,6.59,0,0,0-2.14-4.32,6.28,6.28,0,0,0-4.09-1.55c-2.41,0-5.24,1.51-5.24,4.72,0,2.88,2.29,3.47,5.5,4.32l1.45.33c2.6.7,6.88,1.81,6.88,7.67,0,4.65-2.79,8.93-8.06,8.93a8.66,8.66,0,0,1-6-2.36l-1.45,1.92h-.88l-.23-8h1.11a9.14,9.14,0,0,0,1.64,4.46,7.2,7.2,0,0,0,5.89,2.95c3.86,0,5.85-2.58,5.85-5.68,0-3.72-3.13-4.5-5.24-5.05l-1.53-.4a13.21,13.21,0,0,1-4.4-1.59,6,6,0,0,1-2.67-5.27c0-3.87,2.71-7.86,7.49-7.86a9,9,0,0,1,5,1.62l1.38-1.62Z" transform="translate(-311.16 -240.56)"/><path class="b" d="M451.54,351.58H453l1.89,5.42h0l1.87-5.42h1.42v10.25h-1.47v-6.24h0L455.21,360h-.74L453,355.59h0v6.24h-1.47Z" transform="translate(-311.16 -240.56)"/><path class="b" d="M459.28,354a2.46,2.46,0,1,1,4.92,0v5.41a2.46,2.46,0,1,1-4.92,0Zm1.47,5.41a1,1,0,1,0,2,0V354a1,1,0,1,0-2,0Z" transform="translate(-311.16 -240.56)"/><path class="b" d="M465,360.53l2.77-7.57h-2.62v-1.38h4.22v1.16l-2.82,7.7h2.82v1.38H465Z" transform="translate(-311.16 -240.56)"/><path class="b" d="M472.23,351.58h1.23l2.29,10.25h-1.46l-.43-2.21h-2l-.43,2.21h-1.47Zm.62,2.95h0l-.72,3.71h1.47Z" transform="translate(-311.16 -240.56)"/><path class="b" d="M476.54,351.58h2.37c1.75,0,2.62,1,2.62,3a2.6,2.6,0,0,1-1.28,2.56l1.61,4.68h-1.58l-1.37-4.38H478v4.38h-1.47Zm1.47,4.58h.84c1,0,1.19-.58,1.19-1.6s-.17-1.6-1.26-1.6H478Z" transform="translate(-311.16 -240.56)"/><path class="b" d="M483.8,353h-1.7v-1.38H487V353h-1.7v8.87H483.8Z" transform="translate(-311.16 -240.56)"/><path class="b" d="M494.06,361.82h-1.38l-1.12-6.65h0l-1.1,6.65H489l-1.53-10.25h1.56l.73,6.5h0l1.15-6.5h1.12l1.2,6.66h0l.71-6.66h1.55Z" transform="translate(-311.16 -240.56)"/><path class="b" d="M496.31,354a2.46,2.46,0,1,1,4.92,0v5.41a2.46,2.46,0,1,1-4.92,0Zm1.47,5.41a1,1,0,1,0,2,0V354a1,1,0,1,0-2,0Z" transform="translate(-311.16 -240.56)"/><path class="b" d="M502.35,351.58h1.47V356h1.81v-4.39h1.47v10.25h-1.47v-4.57h-1.81v4.57h-1.47Z" transform="translate(-311.16 -240.56)"/><path class="b" d="M508.27,351.58h1.41l2.22,6.17h0v-6.17h1.47v10.25H512l-2.25-6.16h0v6.16h-1.46Z" transform="translate(-311.16 -240.56)"/><path class="b" d="M519.29,359.52a2.37,2.37,0,1,1-4.75,0v-7.94H516v7.8c0,.72.39,1.06.91,1.06s.91-.34.91-1.06v-7.8h1.47Z" transform="translate(-311.16 -240.56)"/><path class="b" d="M520.44,351.58h1.41l2.22,6.17h0v-6.17h1.47v10.25h-1.38l-2.25-6.16h0v6.16h-1.47Z" transform="translate(-311.16 -240.56)"/><path class="b" d="M526.66,354a2.46,2.46,0,1,1,4.92,0v.52h-1.47V354a1,1,0,1,0-2,0v5.41a1,1,0,1,0,2,0v-1.93h-1.17v-1.29h2.64v3.22a2.46,2.46,0,1,1-4.92,0Z" transform="translate(-311.16 -240.56)"/><path class="b" d="M390.92,361.82h-1.38l-1.12-6.65h0l-1.11,6.65H385.9l-1.52-10.24h1.55l.74,6.5h0l1.15-6.5H389l1.19,6.66h0l.71-6.66h1.55Z" transform="translate(-311.16 -240.56)"/><path class="b" d="M393.38,351.58h1.47v10.24h-1.47Z" transform="translate(-311.16 -240.56)"/><path class="b" d="M396.06,351.58h4.37V353h-2.91v3h2.53v1.38h-2.53v3h2.91v1.47h-4.37Z" transform="translate(-311.16 -240.56)"/><path class="b" d="M401.33,351.58h1.41l2.22,6.17h0v-6.17h1.47v10.24h-1.38l-2.25-6.16h0v6.16h-1.47Z" transform="translate(-311.16 -240.56)"/><path class="b" d="M410.34,351.58h1.41l1.9,5.42h0l1.9-5.42H417v10.24h-1.47v-6.23h0L414,360h-.74l-1.45-4.41h0v6.23h-1.47Z" transform="translate(-311.16 -240.56)"/><path class="b" d="M422.92,359.52a2.37,2.37,0,1,1-4.75,0v-7.94h1.47v7.8c0,.72.39,1.06.91,1.06s.91-.34.91-1.06v-7.8h1.47Z" transform="translate(-311.16 -240.56)"/><path class="b" d="M429,354.52h-1.47v-.33c0-.68-.29-1.24-1-1.24s-1,.65-1,1.33.07,1.06.83,1.36l1.12.45c1.29.49,1.54,1.31,1.54,2.81,0,1.73-.63,3-2.53,3a2.42,2.42,0,0,1-2.5-2.43v-.54h1.47v.46a1,1,0,0,0,1,1c1,0,1.06-.59,1.06-1.52,0-1.1-.13-1.27-.85-1.55l-1-.43a2.42,2.42,0,0,1-1.6-2.64,2.5,2.5,0,0,1,2.52-2.81A2.4,2.4,0,0,1,429,353.8Z" transform="translate(-311.16 -240.56)"/><path class="b" d="M429.95,351.58h4.37V353h-2.91v3h2.53v1.38h-2.53v3h2.91v1.47h-4.37Z" transform="translate(-311.16 -240.56)"/><path class="b" d="M440,359.52a2.38,2.38,0,1,1-4.75,0v-7.94h1.46v7.8c0,.72.39,1.06.91,1.06s.91-.34.91-1.06v-7.8H440Z" transform="translate(-311.16 -240.56)"/><path class="b" d="M441.17,351.58h1.41l1.89,5.42h0l1.87-5.42h1.42v10.24h-1.46v-6.23h0L444.84,360h-.74l-1.44-4.41h0v6.23h-1.47Z" transform="translate(-311.16 -240.56)"/><path class="b" d="M361,361.61h1v-5.43h-1V356h2.19v1.43h0a2.37,2.37,0,0,1,.82-1.19,2.19,2.19,0,0,1,1.3-.38,2.44,2.44,0,0,1,1.2.3,1.44,1.44,0,0,1,.68,1l0,0a2.08,2.08,0,0,1,.26-.48,1.78,1.78,0,0,1,.41-.41,1.9,1.9,0,0,1,.58-.29,2.42,2.42,0,0,1,.75-.11,1.77,1.77,0,0,1,2,2v3.76h1v.19H369v-.19h1V357a1,1,0,0,0-.25-.71.91.91,0,0,0-.69-.26,1.83,1.83,0,0,0-.68.13,1.8,1.8,0,0,0-.61.38,1.89,1.89,0,0,0-.44.67,2.44,2.44,0,0,0-.17.95v3.46h1v.19H365v-.19h1v-4.42a1.32,1.32,0,0,0-.25-.88.8.8,0,0,0-.65-.29,1.63,1.63,0,0,0-.62.14,1.89,1.89,0,0,0-.63.45,2.39,2.39,0,0,0-.49.79,3.22,3.22,0,0,0-.2,1.19v3h1v.19H361Z" transform="translate(-311.16 -240.56)"/><path class="b" d="M373.21,361.61h1v-5.43h-1V356h2.21v5.64h1v.19h-3.26Zm.89-8.8a.7.7,0,0,1,.21-.51.71.71,0,0,1,1,0,.72.72,0,1,1-1.22.51Z" transform="translate(-311.16 -240.56)"/><path class="b" d="M376.83,356h1v-1.75l.2.07a1.44,1.44,0,0,0,.33,0,1.24,1.24,0,0,0,.36,0,.91.91,0,0,0,.28-.16V356H381v.21H379v4.43a2.1,2.1,0,0,0,.07.61.91.91,0,0,0,.2.37.61.61,0,0,0,.27.17,1,1,0,0,0,.27,0,1,1,0,0,0,.77-.35,1.73,1.73,0,0,0,.38-.79l.19.07a3.29,3.29,0,0,1-.12.39,1.37,1.37,0,0,1-.25.41,1.3,1.3,0,0,1-.44.32,1.6,1.6,0,0,1-.68.13,2,2,0,0,1-1.42-.39,1.48,1.48,0,0,1-.4-1.11v-4.3h-1Z" transform="translate(-311.16 -240.56)"/><path class="a" d="M338.6,290.4h-3.17v24.49h3.47v.78H328.12v-.78h3.36V291.14L324,315.66h-1l-7.75-24.82v24h3.36v.78h-7.3v-.78h3.06V290.4h-3.21v-.77h8.11l5.86,19.21,5.75-19.21h7.71Z" transform="translate(-311.16 -240.56)"/><path class="a" d="M341.51,297.85c1.25-4.06,5.05-8.67,10.62-8.67a10.64,10.64,0,0,1,8.45,4.54,15.45,15.45,0,0,1,0,17.85,10.71,10.71,0,0,1-8.45,4.54,9.39,9.39,0,0,1-2.88-.44c-3.47-1-8.45-5.2-8.45-13A16.22,16.22,0,0,1,341.51,297.85Zm10.62,17.26a6.53,6.53,0,0,0,2.21-.41c3.91-1.37,4.13-4.76,4.13-11.95,0-4.39-.15-7.3-.74-8.85a6.11,6.11,0,0,0-11.25,0c-.59,1.55-.74,4.46-.74,8.85,0,7.19.22,10.58,4.13,11.95A6.74,6.74,0,0,0,352.13,315.11Z" transform="translate(-311.16 -240.56)"/><path class="a" d="M367.17,289.63h18.07l-15.49,25.26h7c3.06,0,4.24-.07,5.61-2.1a16.19,16.19,0,0,0,2-5.31h.55l-.74,8.19H365v-.92l15-24.34h-6.2c-1.59,0-2.84,0-4,1-1.51,1.36-2.18,3.84-2.84,6.27h-.59Z" transform="translate(-311.16 -240.56)"/><path class="a" d="M399.42,307.37h-7.86l-2.51,7.52h3.39v.78h-6.93v-.78H388l8.78-25.34H398l8.45,25.34h2.73l0,.78H398.54v-.78H402Zm-7.56-.81h7.3l-3.65-10.77Z" transform="translate(-311.16 -240.56)"/><path class="a" d="M432.87,315.18a6,6,0,0,1-2.77.66,5.27,5.27,0,0,1-3.54-1.29c-1.77-1.55-1.84-3.76-1.88-5.79l-.07-1.62c-.07-1.48-.22-3.58-2.4-4.46-1.07-.44-2.25-.48-4.76-.41v12.61h3.28v.78H410v-.78h3.32V290.4h-3.43v-.77h10.22c2.91,0,5.64,0,7.78,1.59a5.33,5.33,0,0,1,2.25,4.43c0,3.72-3.43,6-8,6.31a9,9,0,0,1,4.79,2c2.4,2.1,2.36,4.76,2.32,6.49v1a7.39,7.39,0,0,0,.11,2,1.74,1.74,0,0,0,1.66,1.44,4.7,4.7,0,0,0,1.55-.41Zm-15.45-24.75v11h1.33c1.59,0,3.8,0,5.13-1s1.77-2.73,1.77-4.43a7.24,7.24,0,0,0-1-3.76c-1.33-1.84-3.76-1.81-6-1.81Z" transform="translate(-311.16 -240.56)"/><path class="a" d="M449.18,314.89v.78H437.63v-.78h3.72V290.4h-1c-2.18,0-3.1,0-4.24,1-1.66,1.33-2.66,4.68-3,6.45h-.66l.33-8.19h21.13l.59,8.19h-.59c-.44-1.73-1.77-5.27-2.8-6.12-1.44-1.36-2.69-1.29-4.57-1.29h-1v24.49Z" transform="translate(-311.16 -240.56)"/><path class="a" d="M467.65,328.64l-4.8,14.86h-.51l-5.14-14.86h-1.36v-.45h6v.45h-2.07l3.75,11.06,3.56-11.06H464.9v-.45h4.24v.45Z" transform="translate(-311.16 -240.56)"/><path class="a" d="M475.88,328.66H474v14.15h1.88v.45H469.7v-.45h1.83V328.66h-1.85v-.45h6.2Z" transform="translate(-311.16 -240.56)"/><path class="a" d="M489.27,338.58l-.41,4.69H477.68v-.45h1.9V328.66h-1.85v-.45h10.76l.17,4.14h-.3c-.06-.17-.26-1-.32-1.17a4.05,4.05,0,0,0-.47-1c-.85-1.45-2-1.47-4-1.47H481.9v6.76h.68c1,0,1.9,0,2.32-.83a4.82,4.82,0,0,0,.32-1.94h.36v6.2h-.34c-.09-2.54-.6-2.94-2.69-3h-.66v6.93h2.43c2,0,2.77,0,3.56-1.32a10.25,10.25,0,0,0,1.09-2.92Z" transform="translate(-311.16 -240.56)"/><path class="a" d="M503,328.66v14.6h-.4l-7.91-12.11c-.45-.68-1-1.47-1.3-2v13.69h2v.45h-4.48v-.45h2V328.66H491v-.45h4.73l4.41,6.8c.41.6.81,1.21,1.19,1.83.17.28,1,1.66,1.19,2V328.66H500.7v-.45h4v.45Z" transform="translate(-311.16 -240.56)"/><path class="a" d="M518.13,328.66v14.6h-.4l-7.91-12.11c-.45-.68-1-1.47-1.3-2v13.69h2v.45H506v-.45h2V328.66h-1.9v-.45h4.73l4.41,6.8c.41.6.81,1.21,1.19,1.83.17.28,1,1.66,1.19,2V328.66h-1.79v-.45h4v.45Z" transform="translate(-311.16 -240.56)"/><path class="a" d="M527.51,338.47H523l-1.45,4.35h2v.45h-4v-.45h1.45L526,328.17h.68l4.88,14.64h1.58l0,.45H527v-.45h2Zm-4.37-.47h4.22l-2.11-6.22Z" transform="translate(-311.16 -240.56)"/><path class="c" d="M521.09,293.92c-.76-1.58-2.23-2.43-2.59-3.1-.23-.43.38-4.11-.7-5.88s-4.36-4.43-4.42-5.06.31-1.14-.19-1.9a4.89,4.89,0,0,1-.95-1.77,16.35,16.35,0,0,1,.57-2.72c.25-.82,1.33-1.9,1.33-3.73s-.75-2.4-.51-3.29a22.37,22.37,0,0,0,.63-5.12c-.13-2.72-3-5.76-3.86-7.27a13.15,13.15,0,0,0-2.34-4.37c-1.37-1.71-5.88-4.43-6-4.62a14.35,14.35,0,0,0-1.08-1.33,15.78,15.78,0,0,0-4.93-1.64c-2-.32-2.35-1.06-3.22-1.27a26.21,26.21,0,0,0-6.71-.13c-1.83.19-4.55.57-6,2s-3.6,4.24-3.8,5.57a16.33,16.33,0,0,0,0,2.53c-.06.32-.72,1.79-.82,2.4a15,15,0,0,0,.44,2.47c0,.38-1.52,3.35-1.52,5.12s.51,4.74.19,5.63-2.73,3.28-3.73,4.93c-.15.24-1.77,2.47.13,3.29s1.94.75,2.12,1.44-.09,3,.09,3.61,1.64,1.65,1.71,2-.06,3,1.39,3.73,5.87,1.61,6.07,3.13c.05.43-.07,2.54.06,4.45.2,2.95,1,5.16.31,6.27a23.79,23.79,0,0,1-1.25,2.07,19.61,19.61,0,0,1-2.25,3.1,33.16,33.16,0,0,0-2.58,2.39,42.71,42.71,0,0,0-7.9,15.45l51.92.05c-.43-8.36-3.64-16.62-3.7-17a4,4,0,0,1,1.08-2.78,9.58,9.58,0,0,0,2.4-2.6C520.65,299.55,521.84,295.49,521.09,293.92Zm-8.22-.79c-.07.3-.57.31-.76.08s-1.73-4.16-2.3-5.21c-1.15-2.09-1-4.59-1.3-5s-.61-1-.23-1.3,1.17.42,1.41.5a11.29,11.29,0,0,0,1.42.11s1.07,0,1.53,3.74A35.13,35.13,0,0,1,512.87,293.13Z" transform="translate(-311.16 -240.56)"/></svg>